# xmcd
#
# Track frame offsets:
#	150
#	15639
#	35893
#	55183
#	78113
#	95763
#	120182
#	143823
#	165556
#	178929
#	200548
#	222008
#	243805
#	266860
#
# Disc length: 3842 seconds
#
# Revision: 4
# Processed by: cddbd v1.4PL0 Copyright (c) Steve Scherf et al.
# Submitted via: MusicWizard 6.0.1
#
DISCID=be0f000e
DTITLE=Eric Clapton - Reptile
DYEAR=1900
DGENRE=Blues
TTITLE0=Reptile
TTITLE1=Got You On My Mind
TTITLE2=Travelin' Light
TTITLE3=Believe In Life
TTITLE4=Come Back Baby
TTITLE5=Broken Down
TTITLE6=Find Myself
TTITLE7=I Ain't Gonna Stand For It
TTITLE8=I Want A Little Girl
TTITLE9=Second Nature
TTITLE10=Don't Let Me Be Lonely Tonight
TTITLE11=Modern Girl
TTITLE12=Superman Inside
TTITLE13=Son and Sylvia
EXTD=
EXTT0=
EXTT1=
EXTT2=
EXTT3=
EXTT4=
EXTT5=
EXTT6=
EXTT7=
EXTT8=
EXTT9=
EXTT10=
EXTT11=
EXTT12=
EXTT13=
PLAYORDER=
